<!DOCTYPE svg PUBLIC "-//W3C//DTD SVG 1.1//EN" "http://www.w3.org/Graphics/SVG/1.1/DTD/svg11.dtd">

<!-- Uploaded to: SVG Repo, www.svgrepo.com, Transformed by: SVG Repo Mixer Tools -->
<svg fill="#ffffff" height="256px" width="256px" version="1.1" id="Layer_1" xmlns="http://www.w3.org/2000/svg" xmlns:xlink="http://www.w3.org/1999/xlink" viewBox="0 0 24 24" xml:space="preserve" stroke="#ffffff" stroke-width="0.00024000000000000003" transform="matrix(1, 0, 0, 1, 0, 0)">

<defs>
    <filter id="sharp-shadow" x="-50%" y="-50%" width="200%" height="200%">
        <feGaussianBlur in="SourceAlpha" stdDeviation="0.1"/> 
        <feOffset dx="1" dy="1" result="offsetShadow"/> 
        <feFlood flood-color="black" flood-opacity="1"/>
        <feComposite in2="offsetShadow" operator="in"/>
        <feMerge>
            <feMergeNode/>
            <feMergeNode in="SourceGraphic"/> 
        </feMerge>
    </filter>
</defs>

<g id="SVGRepo_bgCarrier" stroke-width="0"/>

<g id="SVGRepo_tracerCarrier" stroke-linecap="round" stroke-linejoin="round"/>

<g id="SVGRepo_iconCarrier" style="filter:url(#sharp-shadow);"> <g> <polygon points="16,14 17,14 17,10 16,10 16,9 15,9 15,15 16,15 "/> <path d="M11,3v1h-1v1H9v1H8v1H7v1H6v1H5v1H4v1H3v2h1v1h1v1h1v1h1v1h1v1h1v1h1v1h1v1h2V3H11z M11,16h-1v-1H9v-1H8v-1H7v-2h1v-1h1V9 h1V8h1V16z"/> <polygon points="19,7 19,6 15,6 15,8 17,8 17,9 18,9 18,15 17,15 17,16 15,16 15,18 19,18 19,17 20,17 20,7 "/> </g> </g>

</svg>